<?xml version="1.0" encoding="UTF-8" standalone="no"?>
<!DOCTYPE svg PUBLIC "-//W3C//DTD SVG 1.1//EN" "http://www.w3.org/Graphics/SVG/1.1/DTD/svg11.dtd">
<svg version="1.1" xmlns="http://www.w3.org/2000/svg" xmlns:xlink="http://www.w3.org/1999/xlink" preserveAspectRatio="xMidYMid meet" viewBox="0 0 320 120" width="320" height="120"><defs><path d="M261.47 34.06C261.47 34.06 261.47 34.06 261.47 34.06C261.47 65.19 261.47 82.48 261.47 85.94C261.47 85.94 261.47 85.94 261.47 85.94C242.41 85.94 231.83 85.94 229.71 85.94C229.71 85.94 229.71 85.94 229.71 85.94C229.71 54.81 229.71 37.52 229.71 34.06C229.71 34.06 229.71 34.06 229.71 34.06C248.77 34.06 259.36 34.06 261.47 34.06Z" id="adK6JL834"></path><path d="M245.58 34.07C231.26 22.81 210.51 25.29 199.26 39.62C188 53.95 190.48 74.69 204.81 85.95C216.77 95.35 233.62 95.35 245.58 85.95C237.62 79.7 232.97 70.13 232.98 60C232.97 49.88 237.62 40.32 245.58 34.07Z" id="czLsWzXj1"></path><path d="M295.81 79.39L295.81 80.45L295.61 80.45L295.61 79.39L295.18 79.39L295.18 79.17L296.27 79.17L296.27 79.39L295.81 79.39Z" id="d21Y6Dqh4G"></path><path d="M265.97 92.99C258.58 92.99 251.4 90.51 245.58 85.94C259.91 74.68 262.39 53.94 251.14 39.61C249.51 37.55 247.65 35.68 245.58 34.06C259.91 22.8 280.65 25.28 291.91 39.6C296.48 45.42 298.96 52.6 298.97 59.99C298.96 78.22 284.19 93 265.97 92.99Z" id="c1GgWrVqUV"></path><path d="M29.92 34.7L29.92 34.72L21.04 34.72L21.04 36.22C21.04 36.23 21.04 36.23 21.04 36.23C27.97 36.45 30.04 39.71 30.81 43.51C31.08 46.22 32.45 59.74 34.9 84.07L48.36 84.07L77.11 34.7L63.65 34.7L46.37 64.38L43.38 34.7L29.92 34.7Z" id="k13WW0KPkb"></path><path d="M84.28 34.67L97.34 34.67L81.32 84.09L68.26 84.09L84.28 34.67Z" id="d4D5IKCVx"></path><path d="M165.86 84.09L165.3 76.7L148.85 76.7L145.16 84.09L130.99 84.09L156.25 35.66L175.23 35.66L178.92 84.09L165.86 84.09ZM164.68 68.56L163.11 48.09L152.9 68.56L164.68 68.56Z" id="c3JF9QF7Lo"></path><path d="M119.9 34.06C130.16 34.06 137.77 40.47 137.77 40.47C136.99 41.28 130.78 47.79 130 48.6C130 48.6 124.26 44.16 120.88 44.16C116.41 44.16 114.39 45.79 113.98 48.48C113.16 53.82 132.21 57.09 131.6 69.55C131.2 77.87 122.59 85.94 112.75 85.94C97.99 85.94 90.69 80.02 90.69 80.02C91.36 79.07 96.68 71.48 97.34 70.53C97.34 70.53 104.02 75.88 110.28 75.59C114.51 75.39 117.77 73.77 117.55 70.9C117.06 64.41 97 61.43 100.55 47.24C102.51 39.41 108.94 34.06 119.9 34.06Z" id="d3BWa7xc7"></path></defs><g><g><path></path><g><g><use xlink:href="#adK6JL834" opacity="1" fill="#ff5f00" fill-opacity="1"></use><g><use xlink:href="#adK6JL834" opacity="1" fill-opacity="0" stroke="#000000" stroke-width="1" stroke-opacity="0"></use></g></g><g><use xlink:href="#czLsWzXj1" opacity="1" fill="#eb001b" fill-opacity="1"></use><g><use xlink:href="#czLsWzXj1" opacity="1" fill-opacity="0" stroke="#000000" stroke-width="1" stroke-opacity="0"></use></g></g><g><use xlink:href="#d21Y6Dqh4G" opacity="1" fill="#f79e1b" fill-opacity="1"></use><g><use xlink:href="#d21Y6Dqh4G" opacity="1" fill-opacity="0" stroke="#000000" stroke-width="1" stroke-opacity="0"></use></g></g><g><use xlink:href="#c1GgWrVqUV" opacity="1" fill="#f79e1b" fill-opacity="1"></use><g><use xlink:href="#c1GgWrVqUV" opacity="1" fill-opacity="0" stroke="#000000" stroke-width="1" stroke-opacity="0"></use></g></g></g><g><g><use xlink:href="#k13WW0KPkb" opacity="1" fill="#0061b2" fill-opacity="1"></use><g><use xlink:href="#k13WW0KPkb" opacity="1" fill-opacity="0" stroke="#000000" stroke-width="1" stroke-opacity="0"></use></g></g><g><use xlink:href="#d4D5IKCVx" opacity="1" fill="#0061b2" fill-opacity="1"></use><g><use xlink:href="#d4D5IKCVx" opacity="1" fill-opacity="0" stroke="#000000" stroke-width="1" stroke-opacity="0"></use></g></g><g><use xlink:href="#c3JF9QF7Lo" opacity="1" fill="#0061b2" fill-opacity="1"></use><g><use xlink:href="#c3JF9QF7Lo" opacity="1" fill-opacity="0" stroke="#000000" stroke-width="1" stroke-opacity="0"></use></g></g><g><use xlink:href="#d3BWa7xc7" opacity="1" fill="#0061b2" fill-opacity="1"></use><g><use xlink:href="#d3BWa7xc7" opacity="1" fill-opacity="0" stroke="#000000" stroke-width="1" stroke-opacity="0"></use></g></g></g></g></g></svg>